HIERARCHY
ROOT Hips
{
  OFFSET 13.6774 106.653 -34.4427
  CHANNELS 6 Xposition Yposition Zposition Zrotation Xrotation Yrotation
  JOINT ToSpine
  {
    OFFSET -2.69724 7.43032 -0.144315
    CHANNELS 3 Zrotation Xrotation Yrotation
    JOINT Spine
    {
      OFFSET -0.0310711 10.7595 1.96963
      CHANNELS 3 Zrotation Xrotation Yrotation
      JOINT Spine1
      {
        OFFSET 19.9056 3.91189 0.764692
        CHANNELS 3 Zrotation Xrotation Yrotation
        JOINT Neck
        {
          OFFSET 25.9749 7.03908 -0.130764
          CHANNELS 3 Zrotation Xrotation Yrotation
          JOINT Head
          {
            OFFSET 9.52751 0.295786 -0.907742
            CHANNELS 3 Zrotation Xrotation Yrotation
            End Site
            {
              OFFSET 16.4037 0.713936 2.7358
            }
          }
        }
        JOINT LeftShoulder
        {
          OFFSET 17.7449 4.33886 11.7777
          CHANNELS 3 Zrotation Xrotation Yrotation
          JOINT LeftArm
          {
            OFFSET 0.911315 1.27913 9.80584
            CHANNELS 3 Zrotation Xrotation Yrotation
            JOINT LeftForeArm
            {
              OFFSET 28.6126 1.18197 -3.53199
              CHANNELS 3 Zrotation Xrotation Yrotation
              JOINT LeftHand
              {
                OFFSET 27.5088 0.0218783 0.327423
                CHANNELS 3 Zrotation Xrotation Yrotation
                End Site
                {
                  OFFSET 18.6038 -0.000155887 0.382096
                }
              }
            }
          }
        }
        JOINT RightShoulder
        {
          OFFSET 17.1009 2.89543 -12.2328
          CHANNELS 3 Zrotation Xrotation Yrotation
          JOINT RightArm
          {
            OFFSET 1.4228 0.178766 -10.211
            CHANNELS 3 Zrotation Xrotation Yrotation
            JOINT RightForeArm
            {
              OFFSET 28.733 1.87905 2.64907
              CHANNELS 3 Zrotation Xrotation Yrotation
              JOINT RightHand
              {
                OFFSET 27.4588 0.290562 -0.101845
                CHANNELS 3 Zrotation Xrotation Yrotation
                End Site
                {
                  OFFSET 17.8396 -0.255518 -0.000602873
                }
              }
            }
          }
        }
      }
    }
  }
  JOINT LeftUpLeg
  {
    OFFSET -5.61296 -2.22332 -10.2353
    CHANNELS 3 Zrotation Xrotation Yrotation
    JOINT LeftLeg
    {
      OFFSET 2.56703 -44.7417 -7.93097
      CHANNELS 3 Zrotation Xrotation Yrotation
      JOINT LeftFoot
      {
        OFFSET 3.16933 -46.5642 -3.96578
        CHANNELS 3 Zrotation Xrotation Yrotation
        JOINT LeftToeBase
        {
          OFFSET 0.346054 -6.02161 12.8035
          CHANNELS 3 Zrotation Xrotation Yrotation
          End Site
          {
            OFFSET 0.134235 -1.35082 5.13018
          }
        }
      }
    }
  }
  JOINT RightUpLeg
  {
    OFFSET -5.7928 -1.72406 10.6446
    CHANNELS 3 Zrotation Xrotation Yrotation
    JOINT RightLeg
    {
      OFFSET -2.57161 -44.7178 -7.85259
      CHANNELS 3 Zrotation Xrotation Yrotation
      JOINT RightFoot
      {
        OFFSET -3.10148 -46.5936 -4.03391
        CHANNELS 3 Zrotation Xrotation Yrotation
        JOINT RightToeBase
        {
          OFFSET -0.0828122 -6.13587 12.8035
          CHANNELS 3 Zrotation Xrotation Yrotation
          End Site
          {
            OFFSET -0.131328 -1.35082 5.13018
          }
        }
      }
    }
  }
}
MOTION
Frames: 12
Frame Time: 0.03333333333333333
0.0000 93.1000 0.0000 -66.3048 -3.0281 -179.5636 -70.9496 -1.2989 87.8014 131.5175 62.6302 -62.4369 -8.9411 18.6350 7.2217 -138.0825 49.5338 139.6229 83.6459 80.9031 -52.7937 -1.7997 -16.4450 -26.4234 -105.0651 27.5801 -79.4569 18.0283 6.7793 -69.1284 0.3448 -2.3326 1.4196 -3.6092 5.2724 46.9453 -64.4847 -30.5713 89.7096 16.5294 -20.2048 39.6094 -0.6402 2.9527 1.5858 -5.4360 20.0859 77.7298 -26.9350 77.5501 -1.6865 -6.9785 -8.4470 0.5521 10.7701 -23.1692 22.0006 -10.9724 -1.0535 89.3230 165.2022 71.4435 -168.4241 -7.7162 -22.6205 -0.6248 1.5052 -21.5130 -26.0665 
0.0000 93.1000 0.0000 -64.7899 -1.0368 177.6530 -70.7080 0.2675 88.2075 130.6192 61.2577 -60.0011 -7.9226 18.6546 8.1166 -139.7074 49.2626 140.1529 85.7758 82.4992 -54.3075 -0.3144 -16.5134 -25.1154 -102.1123 27.6373 -80.4274 21.3743 6.4880 -72.7811 -0.4124 0.0187 -0.0810 -3.1429 5.7196 48.3409 -60.4426 -31.9234 87.3646 15.7784 -21.0354 40.5011 -0.2791 -0.1269 -0.3995 -7.3752 21.6328 77.7989 -21.7021 75.8820 -5.2113 -6.0972 -10.0954 -1.3278 12.1713 -24.4165 23.7844 -6.9992 -2.9609 88.5133 165.3105 71.2850 -167.5893 -10.1072 -20.2163 1.1563 0.6889 -26.1337 -31.6604 
0.0000 93.1000 0.0000 -64.0007 2.1665 176.0969 -70.8814 0.5660 88.1662 130.4389 61.6285 -59.3236 -7.9270 17.7322 8.1421 -144.4228 49.2560 143.8553 86.2656 83.5411 -56.1587 0.4397 -16.5756 -26.1277 -98.4453 28.6295 -78.3380 22.3236 5.7027 -74.9374 -0.1598 0.0826 -0.2796 -2.3472 5.9567 47.2031 -58.6896 -34.5742 83.7553 18.2585 -20.1109 43.7359 0.2791 -0.3946 -0.2784 -12.2688 25.1935 80.6512 -17.3900 72.7616 -11.1429 -7.5555 -9.6300 -1.4351 13.6367 -24.3034 25.6940 -3.9491 -5.1760 87.1457 165.5320 72.1548 -169.8739 -12.3599 -15.7844 0.9759 -0.7191 -30.4888 -27.5093 
0.0000 93.1000 0.0000 -64.2809 6.1727 172.3937 -71.1127 0.3877 88.2062 129.4692 61.7443 -57.4705 -8.6577 17.2740 8.2913 -147.0632 49.0068 148.2526 91.0102 83.9090 -63.5981 0.2514 -16.1005 -26.4953 -95.0634 29.5113 -75.2971 26.3717 6.9724 -74.9094 -0.2118 0.3213 -0.1671 -2.6059 6.2150 45.8753 -56.8742 -37.2701 79.4708 20.2190 -19.8002 47.6239 -0.0339 -0.7191 -0.3199 -20.7727 28.1483 85.7520 -11.7299 67.4434 -17.0388 -8.8463 -8.4609 -1.2597 13.7795 -26.4687 27.6467 -2.2087 -8.3213 87.4843 162.5260 74.8022 -161.1822 -12.7545 -11.4862 1.1871 -1.3730 -36.8362 -34.6927 
0.0000 93.1000 0.0000 -64.5325 11.0592 168.8510 -70.8978 0.4882 88.0008 129.4724 61.6678 -55.3232 -9.1693 16.7753 8.3241 -148.8114 48.4466 153.2627 108.1691 84.8159 -81.2158 0.7991 -15.8720 -27.9862 -90.6422 32.6366 -71.1072 28.8671 8.8055 -73.0281 -0.4338 0.8883 -0.9736 -2.2234 6.1200 45.1937 -58.6713 -39.8950 74.6637 20.5748 -18.8901 49.5277 0.3303 -1.7150 -0.7391 -32.7333 29.9119 93.7624 -6.6826 57.8554 -16.0769 -9.0911 -7.2148 -1.1906 12.6717 -24.8044 20.5523 -1.1316 -12.6001 85.4619 158.8363 77.7587 -160.3666 -12.3056 -13.9171 1.7812 -1.6442 -32.8996 -33.2226 
0.0000 93.1000 0.0000 -62.2358 14.9308 163.2416 -70.8956 -0.9613 88.0919 127.5918 62.9984 -50.2951 -11.5277 17.5632 5.8640 -150.6530 47.1863 156.8247 146.8088 85.5709 -117.9678 -1.5796 -15.1057 -28.2502 -87.5818 36.6155 -68.0211 28.7550 12.6619 -68.0972 0.4869 -1.4614 1.8020 -2.3940 5.8461 45.3185 -59.6198 -42.5899 72.2532 20.1585 -18.1324 49.9695 -0.5734 2.8989 2.0254 -45.1845 27.8972 101.7246 -3.9708 45.6673 -10.2305 -14.1914 -2.1800 1.8907 8.7155 -20.4531 8.5441 -0.6269 -15.8171 83.2965 148.0988 81.6381 -148.7752 -13.4109 -12.9930 0.0620 0.3573 -34.9615 -30.9942 
0.0000 93.1000 0.0000 -60.5451 18.5769 159.0149 -71.1388 0.6520 87.8375 124.4900 63.8409 -44.4474 -10.4906 17.7228 5.4020 -150.6786 45.2880 160.6361 -165.5197 84.8653 -162.1231 0.4538 -14.1767 -28.1108 -85.5852 41.7067 -67.1672 25.7718 14.9764 -61.2890 -0.4043 0.4222 -0.2434 -1.8926 5.5563 45.0783 -60.6522 -40.1642 70.8052 19.7804 -17.8481 50.6324 0.1308 -0.4954 -0.1905 -52.4547 24.8941 103.7229 -2.8630 37.7881 -5.6503 -15.6989 7.6717 2.3577 6.0358 -15.2686 6.0385 -2.1205 -18.8283 79.0935 119.9041 85.4761 -118.3793 -12.0387 -14.8214 1.4851 -0.7700 -30.6637 -30.5478 
0.0000 93.1000 0.0000 -58.1202 21.5783 152.5571 -71.2010 -0.3024 87.6804 121.4711 65.6061 -40.2150 -10.0937 17.8822 5.6128 -153.7642 43.3785 162.9125 -152.7922 82.7885 -173.0914 -0.2794 -13.3412 -28.2321 -84.8648 46.6966 -65.0980 22.2814 15.4217 -55.0871 -0.1821 -0.5030 0.1463 -2.3595 5.1148 47.2212 -64.7631 -35.0341 69.6183 19.9737 -16.6999 51.8985 -0.0328 0.3641 0.1567 -57.4710 19.0182 98.7493 -1.6200 31.7257 -3.6256 -16.5466 17.5965 4.7823 2.8901 -9.5617 7.6646 -3.2790 -19.7983 75.0343 54.6242 85.5652 -52.7097 -11.6358 -12.7872 0.9685 -0.8560 -33.1455 -31.7084 
0.0000 93.1000 0.0000 -53.8081 25.4526 146.9958 -71.0865 -0.3868 87.6749 119.6144 66.8347 -37.4268 -8.9534 18.7529 5.7186 -157.9706 42.1473 167.4338 -156.2284 81.4687 -170.2672 -0.1467 -12.8477 -29.1687 -85.2486 50.5432 -62.1505 18.7424 15.6153 -50.7597 0.0733 -0.2955 0.3539 -2.0731 4.9326 49.3251 -68.8680 -29.0140 70.5064 20.0320 -16.3493 54.6579 -0.3315 0.4891 0.0986 -56.3393 13.7556 91.8229 -2.2444 37.8339 -2.8678 -9.7916 12.0358 2.7664 -0.0366 -6.2472 10.5011 -6.2276 -16.8598 72.9340 24.3504 81.4568 -22.3844 -11.7065 -8.0654 0.5446 0.1480 -29.2157 -29.9295 
0.0000 93.1000 0.0000 -49.6669 30.2054 140.2631 -70.7396 -0.3897 87.6976 120.6933 67.5784 -36.6304 -6.9481 19.4375 5.5798 -161.9740 40.3960 172.7236 -155.3102 79.6276 -171.0183 -0.0881 -12.1389 -29.4083 -82.9682 54.5307 -60.2385 16.9337 15.7549 -48.0296 0.1974 -0.1578 0.4417 -1.9111 4.8018 49.4171 -72.0107 -23.9586 73.5402 22.9543 -15.1503 59.0190 -0.0283 0.6874 0.1279 -53.2697 11.0033 90.7795 -3.8515 49.9935 -5.2019 -7.2589 6.9436 1.4315 0.2491 -7.0783 12.3944 -11.0724 -11.0716 72.0330 13.0075 76.2408 -12.0113 -10.0747 -12.7114 0.4676 1.3115 -25.1911 -19.7318 
0.0000 93.1000 0.0000 -43.6216 33.3384 136.3941 -70.5758 -0.7630 87.6902 122.6171 68.7964 -36.1243 -5.4153 20.9418 4.9838 -165.9838 39.3223 176.0188 -154.2676 78.7226 -171.7227 -0.8452 -12.1281 -30.5226 -75.1011 57.4271 -65.0380 16.5787 17.8448 -45.0313 -0.0738 -0.4194 0.3172 -2.4840 5.0543 48.4276 -76.8846 -21.9679 78.4322 26.8938 -12.7456 66.0021 -0.1419 0.9833 -0.0336 -46.2374 9.9837 89.9048 -7.6335 65.0046 -4.9863 -6.6146 4.4861 1.1469 2.0001 -9.3782 11.1145 -15.9673 -4.8571 71.8285 7.8352 72.6550 -9.7026 -10.4492 -19.5117 0.7147 1.4712 -21.1889 -8.1170 
0.0000 93.1000 0.0000 -38.7213 35.4838 130.4498 -70.8134 -0.0539 87.5921 125.5479 70.1413 -37.9470 -5.2040 23.0119 3.5685 -171.1199 38.3444 178.4574 -155.7190 77.7671 -170.8656 -0.7780 -12.9044 -31.2088 -66.3529 60.8619 -71.0389 16.7449 19.4975 -42.4234 0.0638 -0.3561 0.5309 -2.2822 5.5991 47.1793 -79.8105 -20.6649 83.2547 29.7462 -9.1968 75.2353 -1.0761 1.5497 1.2338 -35.3625 8.1977 88.7648 -26.0056 78.7973 9.3156 -7.0780 3.9403 1.0467 3.3059 -11.9884 11.4756 -19.2674 -0.4683 73.1905 6.3242 69.7438 -6.3128 -12.5957 -19.8047 0.7345 2.5362 -23.5593 -16.1913 
